<svg width="30" height="30" viewBox="0 0 30 30" fill="none" xmlns="http://www.w3.org/2000/svg">
<path d="M7.78232 6.01382C7.29417 5.52567 6.50271 5.52567 6.01456 6.01382C5.5264 6.50197 5.5264 7.29343 6.01456 7.78158L13.233 15L6.01463 22.2184C5.52647 22.7065 5.52647 23.498 6.01463 23.9861C6.50278 24.4742 7.29425 24.4742 7.7824 23.9861L15.0007 16.7677L22.2191 23.9861C22.7072 24.4742 23.4987 24.4742 23.9869 23.9861C24.475 23.498 24.475 22.7065 23.9869 22.2184L16.7685 15L23.9869 7.78158C24.4751 7.29343 24.4751 6.50197 23.9869 6.01382C23.4987 5.52567 22.7074 5.52567 22.2191 6.01382L15.0007 13.2322L7.78232 6.01382Z" fill="white"/>
</svg>
