<svg width="44" height="30" viewBox="0 0 44 30" fill="none" xmlns="http://www.w3.org/2000/svg">
<path d="M1.36361 2.72721H42.2728C43.0255 2.72721 43.6364 2.11625 43.6364 1.36361C43.6364 0.610845 43.0254 0 42.2728 0H1.36361C0.610959 0 0 0.610845 0 1.36361C0 2.11637 0.610959 2.72721 1.36361 2.72721Z" fill="white"/>
<path d="M42.2728 13.6365H1.36361C0.610845 13.6365 0 14.2474 0 15.0001C0 15.7527 0.610959 16.3637 1.36361 16.3637H42.2728C43.0255 16.3637 43.6364 15.7527 43.6364 15.0001C43.6364 14.2474 43.0255 13.6365 42.2728 13.6365Z" fill="white"/>
<path d="M42.2728 27.2727H1.36361C0.610845 27.2727 0 27.8837 0 28.6363C0 29.3891 0.610959 29.9999 1.36361 29.9999H42.2728C43.0255 29.9999 43.6364 29.389 43.6364 28.6363C43.6365 27.8836 43.0255 27.2727 42.2728 27.2727Z" fill="white"/>
</svg>
