<svg width="30" height="30" viewBox="0 0 30 30" fill="none" xmlns="http://www.w3.org/2000/svg">
<path fill-rule="evenodd" clip-rule="evenodd" d="M5.03029 11.25L5 11.1637C4.32549 9.2302 3.75 6.5875 3.75 5C3.75 4.3125 4.3125 3.75 5 3.75C5 3.75 6.25 3.75 8.75 3.75C10.1307 3.75 11.25 4.86929 11.25 6.25V8.75C11.25 10.1307 10.1307 11.25 8.75 11.25H7.70379C9.7332 16.2635 13.7365 20.2668 18.75 22.2962V21.25C18.75 19.8693 19.8693 18.75 21.25 18.75H23.75C25.1307 18.75 26.25 19.8693 26.25 21.25C26.25 23.75 26.25 25 26.25 25C26.25 25.5625 25.5625 26.25 25 26.25C22.8431 26.25 20.7008 25.6805 18.75 25C12.3569 22.7101 7.28993 17.6431 5.03029 11.25Z" fill="white"/>
</svg>
